# Blender 4.5.1 LTS
# www.blender.org
mtllib helper.mtl
o Cone
v 0.000000 -0.006588 -0.127225
v 0.127225 -0.006588 0.000000
v 0.000000 -0.006588 0.127225
v -0.127225 -0.006588 0.000000
v 0.000000 0.109886 -0.000000
vn 0.5596 0.6113 -0.5596
vn 0.5596 0.6113 0.5596
vn -0.0000 -1.0000 -0.0000
vn -0.5596 0.6113 0.5596
vn -0.5596 0.6113 -0.5596
vt 0.491557 0.505501
vt 0.491557 0.422255
vt 0.492723 0.422255
vt 0.491557 0.339009
vt 0.491539 0.680673
vt 0.492705 0.597427
vt 0.491539 0.514181
vt 0.490374 0.597427
vt 0.490392 0.422255
s 1
f 1/1/1 5/2/1 2/3/1
f 2/3/2 5/2/2 3/4/2
f 1/5/3 2/6/3 3/7/3 4/8/3
f 3/4/4 5/2/4 4/9/4
f 4/9/5 5/2/5 1/1/5
